<svg xmlns="http://www.w3.org/2000/svg" xmlns:xlink="http://www.w3.org/1999/xlink" width="256" zoomAndPan="magnify" viewBox="0 0 192 191.999996" height="256" preserveAspectRatio="xMidYMid meet" version="1.0"><defs><clipPath id="cc440596d0"><path d="M 13.757812 15.671875 L 165.257812 15.671875 L 165.257812 167.171875 L 13.757812 167.171875 Z M 13.757812 15.671875 " clip-rule="nonzero"/></clipPath></defs><rect x="-19.2" width="230.4" fill="#ffffff" y="-19.2" height="230.399995" fill-opacity="1"/><path fill="#fcb679" d="M 159.074219 62.515625 C 155.347656 61.457031 152.410156 58.546875 151.347656 54.820312 C 150.652344 54.941406 149.925781 54.972656 149.167969 54.972656 C 142.652344 54.972656 137.167969 50.578125 135.53125 44.578125 C 135.472656 44.335938 135.410156 44.09375 135.351562 43.851562 C 135.136719 42.882812 135.046875 41.882812 135.046875 40.851562 C 135.046875 39.246094 135.320312 37.699219 135.804688 36.277344 C 134.867188 36.519531 133.894531 36.640625 132.894531 36.640625 C 127.53125 36.640625 123.019531 32.882812 121.898438 27.824219 C 119.472656 29.335938 116.625 30.214844 113.566406 30.214844 C 105.59375 30.214844 98.988281 24.277344 97.960938 16.550781 C 95.171875 16.246094 92.355469 16.066406 89.476562 16.066406 C 47.90625 16.097656 14.179688 49.820312 14.179688 91.421875 C 14.179688 92.664062 14.210938 93.90625 14.269531 95.148438 C 14.515625 99.96875 15.179688 104.632812 16.269531 109.179688 C 24.238281 142.207031 53.996094 166.75 89.476562 166.75 C 128.230469 166.75 160.164062 137.476562 164.316406 99.816406 C 164.316406 99.722656 164.347656 99.601562 164.347656 99.511719 C 164.5 98.058594 164.621094 96.605469 164.679688 95.148438 C 164.742188 93.90625 164.773438 92.664062 164.773438 91.421875 C 164.832031 81.179688 162.773438 71.425781 159.074219 62.515625 Z M 89.507812 115.296875 C 77.597656 115.296875 67.691406 106.574219 65.902344 95.148438 C 67.691406 83.726562 77.566406 75 89.507812 75 C 101.445312 75 111.324219 83.726562 113.109375 95.148438 C 111.324219 106.574219 101.414062 115.296875 89.507812 115.296875 Z M 89.507812 115.296875 " fill-opacity="1" fill-rule="nonzero"/><path fill="#f28243" d="M 159.074219 62.515625 C 155.347656 61.457031 152.410156 58.546875 151.347656 54.820312 C 150.652344 54.941406 149.925781 54.972656 149.167969 54.972656 C 141.347656 54.972656 135.046875 48.640625 135.046875 40.851562 C 135.046875 39.246094 135.320312 37.699219 135.804688 36.277344 C 134.867188 36.519531 133.894531 36.640625 132.894531 36.640625 C 127.53125 36.640625 123.019531 32.882812 121.898438 27.824219 C 119.472656 29.335938 116.625 30.214844 113.566406 30.214844 C 105.59375 30.214844 98.988281 24.277344 97.960938 16.550781 C 95.171875 16.25 92.355469 16.066406 89.476562 16.066406 C 47.90625 16.097656 14.179688 49.820312 14.179688 91.421875 C 14.179688 97.542969 14.90625 103.480469 16.269531 109.179688 C 16.9375 111.90625 17.726562 114.570312 18.695312 117.175781 C 20 117.480469 21.363281 117.664062 22.695312 117.664062 C 29.269531 117.664062 34.601562 114.027344 39.542969 110.300781 C 42.84375 107.785156 44.722656 107.269531 45.722656 107.269531 C 45.933594 107.269531 46.117188 107.300781 46.296875 107.328125 C 47.269531 107.601562 48.359375 108.964844 48.902344 110.632812 C 50.023438 114.175781 49.84375 118.480469 49.632812 123.023438 C 49.328125 129.628906 48.964844 137.113281 52.722656 144.113281 C 55.480469 149.265625 60.722656 152.597656 66.085938 152.597656 C 67.449219 152.597656 68.8125 152.386719 70.085938 151.960938 C 72.871094 151.023438 76.597656 148.8125 78.660156 143.597656 C 79.78125 140.71875 80.113281 137.691406 80.386719 135.234375 C 80.445312 134.78125 80.476562 134.359375 80.539062 133.933594 C 80.902344 130.8125 82.324219 127.238281 84.597656 126.78125 C 84.75 126.753906 84.929688 126.722656 85.113281 126.722656 C 86.265625 126.722656 87.324219 127.296875 87.71875 127.84375 C 88.144531 128.417969 88.535156 129.328125 88.960938 130.265625 C 89.960938 132.507812 91.203125 135.265625 93.929688 137.597656 C 96.625 139.902344 99.839844 141.144531 103.171875 141.144531 C 108.808594 141.144531 114.050781 137.539062 116.5625 131.964844 C 117.988281 128.78125 118.503906 125.570312 118.957031 122.722656 C 119.683594 118.148438 120.140625 116.296875 122.078125 115.054688 C 122.988281 114.480469 124.199219 114.148438 125.382812 114.148438 C 126.53125 114.148438 127.59375 114.449219 128.320312 114.996094 C 128.925781 115.449219 129.59375 116.269531 130.382812 117.238281 C 131.289062 118.359375 132.320312 119.632812 133.683594 120.84375 C 136.410156 123.238281 139.5 124.660156 142.683594 124.902344 C 143.046875 124.933594 143.441406 124.933594 143.804688 124.933594 C 146.863281 124.933594 150.015625 123.875 152.683594 121.933594 C 157.046875 118.8125 159.136719 114.601562 161.015625 110.875 C 161.800781 109.328125 162.527344 107.84375 163.347656 106.632812 C 163.800781 104.390625 164.164062 102.089844 164.4375 99.785156 C 164.4375 99.695312 164.46875 99.574219 164.46875 99.480469 C 164.742188 96.816406 164.894531 94.117188 164.894531 91.390625 C 164.832031 81.179688 162.773438 71.425781 159.074219 62.515625 Z M 89.507812 115.296875 C 76.324219 115.296875 65.628906 104.601562 65.628906 91.421875 C 65.628906 78.242188 76.324219 67.546875 89.507812 67.546875 C 102.6875 67.546875 113.382812 78.242188 113.382812 91.421875 C 113.382812 104.601562 102.6875 115.296875 89.507812 115.296875 Z M 113.109375 95.148438 C 111.324219 83.726562 101.445312 75 89.507812 75 C 77.566406 75 67.691406 83.726562 65.902344 95.148438 C 66.175781 81.394531 77.902344 70.695312 90.839844 71.425781 C 102.867188 72.089844 112.898438 82.421875 113.109375 95.148438 Z M 113.109375 95.148438 " fill-opacity="0.38" fill-rule="nonzero"/><path fill="#ff7f91" d="M 159.074219 62.515625 C 155.347656 61.457031 152.410156 58.546875 151.347656 54.820312 C 150.652344 54.941406 149.925781 54.972656 149.167969 54.972656 C 141.347656 54.972656 135.046875 48.640625 135.046875 40.851562 C 135.046875 39.246094 135.320312 37.699219 135.804688 36.277344 C 134.867188 36.519531 133.894531 36.640625 132.894531 36.640625 C 127.53125 36.640625 123.019531 32.882812 121.898438 27.824219 C 119.472656 29.335938 116.625 30.214844 113.566406 30.214844 C 105.59375 30.214844 98.988281 24.277344 97.960938 16.550781 C 95.171875 16.25 92.355469 16.066406 89.476562 16.066406 C 47.90625 16.097656 14.179688 49.820312 14.179688 91.421875 C 14.179688 97.542969 14.90625 103.480469 16.269531 109.179688 C 23.511719 113.691406 29.574219 109.664062 35.601562 105.117188 C 39.179688 102.390625 43.632812 99.875 47.996094 101.058594 C 51.480469 101.996094 53.964844 105.207031 55.054688 108.632812 C 58.359375 118.996094 53.144531 131.175781 58.386719 141.054688 C 60.207031 144.476562 64.296875 147.023438 67.964844 145.78125 C 73.324219 143.992188 73.449219 137.84375 73.992188 133.144531 C 74.628906 127.8125 77.324219 121.632812 83.144531 120.417969 C 86.65625 119.660156 90.871094 121.148438 92.929688 124.144531 C 94.871094 126.933594 95.382812 130.417969 98.019531 132.691406 C 102.503906 136.539062 108.230469 134.417969 110.503906 129.328125 C 113.535156 122.570312 111.292969 114.175781 118.441406 109.601562 C 122.441406 107.058594 128.167969 106.9375 132.046875 109.785156 C 134.378906 111.511719 135.714844 114.085938 137.863281 115.964844 C 139.351562 117.269531 141.167969 118.269531 143.105469 118.417969 C 145.136719 118.601562 147.136719 117.84375 148.773438 116.664062 C 153.925781 112.933594 155.015625 106.238281 158.953125 101.542969 C 159.589844 100.785156 160.5 100.117188 161.40625 99.753906 C 161.621094 99.664062 164.378906 99.148438 164.316406 99.601562 C 164.316406 99.574219 164.347656 99.511719 164.347656 99.453125 C 164.621094 96.785156 164.773438 94.089844 164.773438 91.363281 C 164.832031 81.179688 162.773438 71.425781 159.074219 62.515625 Z M 89.507812 115.296875 C 76.324219 115.296875 65.628906 104.601562 65.628906 91.421875 C 65.628906 78.242188 76.324219 67.546875 89.507812 67.546875 C 102.6875 67.546875 113.382812 78.242188 113.382812 91.421875 C 113.382812 104.601562 102.6875 115.296875 89.507812 115.296875 Z M 89.507812 115.296875 " fill-opacity="1" fill-rule="nonzero"/><path fill="#ffffff" d="M 87.628906 66.273438 C 92.929688 66.273438 97.808594 68 101.777344 70.910156 C 98.203125 68.757812 93.992188 67.515625 89.507812 67.515625 C 76.324219 67.515625 65.628906 78.210938 65.628906 91.390625 C 65.628906 99.300781 69.449219 106.300781 75.355469 110.632812 C 68.386719 106.449219 63.75 98.847656 63.75 90.148438 C 63.75 76.96875 74.445312 66.273438 87.628906 66.273438 Z M 93.113281 16.1875 C 91.929688 16.125 90.71875 16.097656 89.507812 16.097656 C 47.90625 16.097656 14.179688 49.820312 14.179688 91.421875 C 14.179688 97.542969 14.90625 103.480469 16.269531 109.179688 C 19.875 111.449219 23.632812 111.117188 23.632812 111.117188 C 23.632812 111.117188 21.390625 97.542969 21.390625 91.421875 C 21.421875 51.03125 53.207031 18.066406 93.113281 16.1875 Z M 74.023438 46.882812 C 74.023438 49.214844 72.902344 51.730469 71.507812 53.425781 C 71.628906 53.457031 71.75 53.546875 71.839844 53.578125 C 73.386719 51.851562 74.628906 49.183594 74.628906 46.667969 C 74.628906 41.246094 70.234375 36.851562 64.8125 36.851562 C 63.601562 36.851562 62.449219 37.0625 61.386719 37.457031 C 62.265625 37.183594 63.207031 37.0625 64.175781 37.0625 C 69.628906 37.0625 74.023438 41.457031 74.023438 46.882812 Z M 114.109375 36.851562 C 108.6875 36.851562 104.292969 41.246094 104.292969 46.667969 C 104.292969 49.183594 105.503906 51.851562 107.082031 53.578125 C 107.171875 53.515625 107.324219 53.457031 107.414062 53.425781 C 106.050781 51.730469 104.898438 49.246094 104.898438 46.882812 C 104.898438 41.457031 109.292969 37.0625 114.714844 37.0625 C 115.683594 37.0625 116.625 37.214844 117.503906 37.457031 C 116.472656 37.0625 115.320312 36.851562 114.109375 36.851562 Z M 95.503906 57.214844 C 96.261719 57.214844 96.871094 57.910156 96.71875 58.667969 C 96.355469 60.546875 95.261719 62.152344 93.75 63.214844 C 93.535156 63.363281 93.292969 63.515625 93.082031 63.636719 C 92.019531 64.214844 90.808594 64.578125 89.507812 64.578125 C 88.203125 64.578125 86.992188 64.242188 85.929688 63.636719 C 85.6875 63.515625 85.476562 63.363281 85.265625 63.214844 C 84.71875 62.820312 84.113281 62.457031 83.507812 62 C 83.960938 62.605469 84.507812 63.214844 85.113281 63.667969 C 85.355469 63.847656 85.566406 63.96875 85.808594 64.121094 C 86.960938 64.789062 88.355469 65.152344 89.777344 65.152344 C 91.203125 65.152344 92.535156 64.757812 93.6875 64.089844 C 93.929688 63.941406 94.171875 63.789062 94.414062 63.605469 C 96.050781 62.394531 97.234375 60.578125 97.65625 58.457031 C 97.808594 57.609375 97.171875 56.789062 96.324219 56.789062 L 91.234375 56.789062 Z M 95.503906 57.214844 " fill-opacity="0.37" fill-rule="nonzero"/><path fill="#ee4b80" d="M 117.65625 29.457031 C 117.683594 29.519531 117.683594 29.609375 117.714844 29.703125 C 117.472656 29.761719 117.230469 29.824219 116.988281 29.882812 C 117.230469 29.730469 117.441406 29.578125 117.65625 29.457031 Z M 164.800781 89.726562 C 164.800781 89.605469 164.800781 89.484375 164.800781 89.363281 C 164.800781 88.816406 164.769531 88.242188 164.742188 87.695312 C 164.742188 87.605469 164.742188 87.542969 164.742188 87.453125 C 164.710938 86.9375 164.679688 86.453125 164.648438 85.9375 C 164.648438 85.847656 164.648438 85.726562 164.621094 85.636719 C 164.589844 85.089844 164.527344 84.542969 164.46875 84 C 164.46875 83.878906 164.4375 83.757812 164.4375 83.664062 C 164.378906 83.152344 164.316406 82.636719 164.257812 82.152344 C 164.257812 82.089844 164.257812 82.03125 164.226562 81.96875 C 164.164062 81.421875 164.074219 80.878906 164.015625 80.332031 C 163.984375 80.210938 163.984375 80.089844 163.953125 79.96875 C 163.863281 79.421875 163.773438 78.878906 163.679688 78.363281 C 163.679688 78.300781 163.648438 78.273438 163.648438 78.210938 C 163.558594 77.726562 163.46875 77.210938 163.378906 76.726562 C 163.347656 76.605469 163.316406 76.484375 163.316406 76.363281 C 163.226562 75.847656 163.105469 75.332031 162.984375 74.816406 C 162.953125 74.695312 162.921875 74.574219 162.894531 74.484375 C 162.800781 74.03125 162.679688 73.605469 162.589844 73.183594 C 162.558594 73.058594 162.527344 72.9375 162.5 72.847656 C 162.5 72.816406 162.46875 72.789062 162.46875 72.757812 C 161.558594 69.273438 160.4375 65.878906 159.074219 62.605469 C 155.347656 61.546875 152.410156 58.636719 151.347656 54.910156 C 150.652344 55.03125 149.925781 55.0625 149.167969 55.0625 C 141.347656 55.0625 135.046875 48.730469 135.046875 40.941406 C 135.046875 39.335938 135.320312 37.792969 135.804688 36.367188 C 134.867188 36.609375 133.894531 36.730469 132.894531 36.730469 C 127.53125 36.730469 123.019531 32.972656 121.898438 27.914062 C 120.625 28.730469 119.199219 29.335938 117.683594 29.761719 C 118.898438 34.699219 123.320312 38.914062 128.625 38.914062 C 129.625 38.914062 130.59375 38.792969 131.53125 38.550781 C 131.046875 39.972656 130.773438 41.519531 130.773438 43.125 C 130.773438 50.941406 137.109375 57.242188 144.894531 57.242188 C 145.621094 57.242188 146.347656 57.183594 147.078125 57.09375 C 148.167969 60.789062 151.074219 63.726562 154.804688 64.789062 C 157.589844 71.484375 159.4375 78.667969 160.164062 86.148438 C 159.710938 86.242188 159.316406 86.300781 159.257812 86.332031 C 158.347656 86.695312 157.410156 87.363281 156.800781 88.121094 C 152.894531 92.816406 151.804688 99.511719 146.621094 103.238281 C 144.984375 104.421875 142.957031 105.148438 140.957031 104.996094 C 138.984375 104.84375 137.167969 103.84375 135.714844 102.542969 C 133.5625 100.632812 132.230469 98.058594 129.894531 96.359375 C 126.019531 93.511719 120.292969 93.632812 116.292969 96.179688 C 109.140625 100.722656 111.382812 109.148438 108.351562 115.90625 C 106.050781 120.996094 100.355469 123.117188 95.871094 119.269531 C 94.566406 118.148438 93.75 116.691406 93.050781 115.207031 C 91.898438 115.390625 90.6875 115.480469 89.476562 115.480469 C 84.113281 115.480469 79.175781 113.722656 75.203125 110.753906 C 73.234375 113.300781 72.175781 116.664062 71.8125 119.753906 C 71.234375 124.480469 71.144531 130.601562 65.78125 132.386719 C 62.113281 133.628906 58.023438 131.054688 56.207031 127.660156 C 56.117188 127.480469 56.023438 127.296875 55.933594 127.085938 C 55.8125 132.023438 56.085938 136.84375 58.386719 141.234375 C 60.207031 144.660156 64.296875 147.203125 67.964844 145.960938 C 73.324219 144.175781 73.449219 138.023438 73.992188 133.328125 C 74.628906 127.996094 77.324219 121.8125 83.144531 120.601562 C 86.65625 119.84375 90.871094 121.328125 92.929688 124.328125 C 94.871094 127.117188 95.382812 130.601562 98.019531 132.871094 C 102.503906 136.722656 108.230469 134.601562 110.503906 129.507812 C 113.535156 122.753906 111.292969 114.359375 118.441406 109.785156 C 122.441406 107.238281 128.167969 107.117188 132.046875 109.964844 C 134.378906 111.691406 135.714844 114.269531 137.863281 116.148438 C 139.351562 117.449219 141.167969 118.449219 143.105469 118.601562 C 145.136719 118.785156 147.136719 118.027344 148.773438 116.84375 C 153.925781 113.117188 155.015625 106.421875 158.953125 101.722656 C 159.316406 101.300781 159.800781 100.875 160.285156 100.542969 C 160.347656 100.511719 160.410156 100.480469 160.46875 100.421875 C 160.53125 100.390625 160.558594 100.359375 160.621094 100.332031 C 160.679688 100.300781 160.742188 100.269531 160.773438 100.238281 C 160.832031 100.210938 160.894531 100.179688 160.953125 100.148438 C 161.015625 100.117188 161.042969 100.089844 161.105469 100.089844 C 161.195312 100.027344 161.316406 99.996094 161.40625 99.9375 C 161.621094 99.847656 164.378906 99.332031 164.316406 99.785156 C 164.316406 99.753906 164.347656 99.695312 164.347656 99.632812 C 164.621094 96.96875 164.769531 94.269531 164.769531 91.542969 C 164.832031 90.847656 164.800781 90.269531 164.800781 89.726562 Z M 164.800781 89.726562 " fill-opacity="0.55" fill-rule="nonzero"/><path fill="#3f2401" d="M 74.023438 46.882812 C 74.023438 49.394531 73.082031 51.699219 71.507812 53.425781 C 69.539062 52.515625 67.175781 51.972656 64.84375 51.972656 C 62.113281 51.972656 59.359375 52.636719 57.238281 53.789062 C 55.480469 52.003906 54.386719 49.578125 54.386719 46.882812 C 54.386719 41.457031 58.78125 37.0625 64.207031 37.0625 C 69.628906 37.0625 74.023438 41.457031 74.023438 46.882812 Z M 57.84375 53.578125 C 58.449219 53.246094 59.085938 52.972656 59.78125 52.730469 C 59.085938 52.941406 58.417969 53.214844 57.78125 53.515625 C 57.8125 53.515625 57.84375 53.546875 57.84375 53.578125 Z M 104.898438 46.882812 C 104.898438 49.394531 105.839844 51.699219 107.414062 53.425781 C 109.382812 52.515625 111.746094 51.972656 114.078125 51.972656 C 116.804688 51.972656 119.5625 52.636719 121.683594 53.789062 C 123.441406 52.003906 124.53125 49.578125 124.53125 46.882812 C 124.53125 41.457031 120.140625 37.0625 114.714844 37.0625 C 109.292969 37.0625 104.898438 41.457031 104.898438 46.882812 Z M 93.292969 64 C 93.566406 63.847656 93.777344 63.699219 93.992188 63.546875 C 95.625 62.394531 96.71875 60.699219 97.113281 58.730469 C 97.203125 58.242188 97.082031 57.757812 96.777344 57.363281 C 96.445312 56.972656 95.992188 56.757812 95.476562 56.757812 L 83.476562 56.757812 C 82.960938 56.757812 82.507812 56.972656 82.171875 57.363281 C 81.871094 57.757812 81.75 58.242188 81.839844 58.730469 C 82.234375 60.667969 83.355469 62.394531 84.960938 63.546875 C 85.171875 63.699219 85.414062 63.847656 85.6875 64 C 86.839844 64.636719 88.144531 64.96875 89.476562 64.96875 C 90.839844 65 92.140625 64.667969 93.292969 64 Z M 95.503906 57.636719 C 95.75 57.636719 95.960938 57.757812 96.140625 57.941406 C 96.292969 58.121094 96.355469 58.363281 96.292969 58.578125 C 95.960938 60.304688 94.960938 61.820312 93.507812 62.847656 C 93.324219 63 93.113281 63.121094 92.871094 63.242188 C 91.839844 63.820312 90.6875 64.121094 89.507812 64.121094 C 88.324219 64.121094 87.171875 63.820312 86.144531 63.242188 C 85.902344 63.121094 85.71875 62.96875 85.507812 62.847656 C 84.050781 61.820312 83.082031 60.304688 82.71875 58.578125 C 82.660156 58.363281 82.71875 58.121094 82.871094 57.941406 C 83.023438 57.757812 83.265625 57.636719 83.507812 57.636719 Z M 95.503906 57.636719 " fill-opacity="1" fill-rule="nonzero"/><path fill="#ffffff" d="M 61.570312 43.851562 C 61.570312 41.761719 63.265625 40.0625 65.355469 40.0625 C 67.449219 40.0625 69.144531 41.761719 69.144531 43.851562 C 69.144531 45.941406 67.449219 47.640625 65.355469 47.640625 C 63.265625 47.640625 61.570312 45.941406 61.570312 43.851562 Z M 60.085938 50.335938 C 60.871094 50.09375 61.328125 49.246094 61.085938 48.457031 C 60.84375 47.667969 59.992188 47.214844 59.207031 47.457031 C 58.417969 47.699219 57.964844 48.546875 58.207031 49.335938 C 58.417969 50.125 59.265625 50.578125 60.085938 50.335938 Z M 58.871094 45.003906 C 59.265625 45.0625 59.660156 44.789062 59.722656 44.398438 C 59.78125 44.003906 59.507812 43.609375 59.117188 43.546875 C 58.722656 43.488281 58.328125 43.761719 58.265625 44.15625 C 58.207031 44.546875 58.480469 44.941406 58.871094 45.003906 Z M 117.351562 43.851562 C 117.351562 41.761719 115.65625 40.0625 113.566406 40.0625 C 111.472656 40.0625 109.777344 41.761719 109.777344 43.851562 C 109.777344 45.941406 111.472656 47.640625 113.566406 47.640625 C 115.65625 47.640625 117.351562 45.941406 117.351562 43.851562 Z M 120.746094 49.335938 C 120.988281 48.546875 120.535156 47.699219 119.746094 47.457031 C 118.957031 47.214844 118.109375 47.667969 117.867188 48.457031 C 117.625 49.246094 118.078125 50.09375 118.867188 50.335938 C 119.65625 50.578125 120.503906 50.125 120.746094 49.335938 Z M 120.625 44.15625 C 120.5625 43.761719 120.167969 43.488281 119.777344 43.546875 C 119.382812 43.609375 119.109375 44.003906 119.171875 44.398438 C 119.230469 44.789062 119.625 45.0625 120.019531 45.003906 C 120.441406 44.941406 120.683594 44.546875 120.625 44.15625 Z M 120.625 44.15625 " fill-opacity="1" fill-rule="nonzero"/><path fill="#c7495d" d="M 95.140625 57.425781 C 95.871094 57.425781 96.414062 58.09375 96.261719 58.789062 C 95.898438 60.546875 94.898438 62.0625 93.476562 63.0625 C 93.261719 63.214844 93.050781 63.335938 92.839844 63.457031 C 91.839844 64 90.6875 64.335938 89.476562 64.335938 C 88.265625 64.335938 87.113281 64.03125 86.113281 63.457031 C 85.902344 63.335938 85.6875 63.214844 85.476562 63.0625 C 84.050781 62.0625 83.050781 60.546875 82.6875 58.789062 C 82.539062 58.09375 83.113281 57.425781 83.808594 57.425781 Z M 95.140625 57.425781 " fill-opacity="1" fill-rule="nonzero"/><path fill="#ab0000" d="M 93.507812 63.0625 C 93.292969 63.214844 93.082031 63.335938 92.871094 63.457031 C 91.871094 64 90.71875 64.335938 89.507812 64.335938 C 88.292969 64.335938 87.144531 64.03125 86.144531 63.457031 C 85.929688 63.335938 85.71875 63.214844 85.507812 63.0625 C 86.171875 61.820312 87.71875 60.972656 89.507812 60.972656 C 91.292969 60.972656 92.839844 61.847656 93.507812 63.0625 Z M 93.507812 63.0625 " fill-opacity="1" fill-rule="nonzero"/><path fill="#ff4c40" d="M 64.8125 60.878906 C 64.8125 61.941406 61.296875 62.820312 56.996094 62.820312 C 52.691406 62.820312 49.175781 61.941406 49.175781 60.878906 C 49.175781 59.820312 52.691406 58.941406 56.996094 58.941406 C 61.296875 58.941406 64.8125 59.820312 64.8125 60.878906 Z M 114.140625 60.878906 C 114.140625 61.941406 117.65625 62.820312 121.957031 62.820312 C 126.289062 62.820312 129.773438 61.941406 129.773438 60.878906 C 129.773438 59.820312 126.261719 58.941406 121.957031 58.941406 C 117.625 58.941406 114.140625 59.820312 114.140625 60.878906 Z M 114.140625 60.878906 " fill-opacity="1" fill-rule="nonzero"/><path fill="#ffffff" d="M 94.261719 32.277344 L 93.113281 33.09375 L 88.65625 26.882812 L 89.808594 26.066406 Z M 142.105469 59.242188 L 140.957031 60.0625 L 145.378906 66.304688 L 146.53125 65.484375 Z M 28.332031 91.632812 L 27.179688 92.453125 L 31.601562 98.695312 L 32.753906 97.875 Z M 60.871094 68.636719 L 59.691406 67.847656 L 55.386719 74.152344 L 56.570312 74.9375 Z M 65.871094 111.570312 L 64.601562 112.207031 L 68.023438 119.054688 L 69.296875 118.417969 Z M 65.871094 111.570312 " fill-opacity="1" fill-rule="nonzero"/><path fill="#ff3083" d="M 103.867188 55.851562 L 102.71875 56.667969 L 98.292969 50.457031 L 99.445312 49.636719 Z M 37.570312 71.484375 L 36.421875 72.304688 L 40.84375 78.542969 L 41.996094 77.726562 Z M 147.863281 77.152344 L 146.742188 76.273438 L 142.078125 82.332031 L 143.199219 83.210938 Z M 130.925781 95.148438 L 129.773438 95.96875 L 134.199219 102.210938 L 135.351562 101.390625 Z M 43.511719 47.183594 L 42.207031 46.609375 L 39.148438 53.609375 L 40.449219 54.183594 Z M 43.511719 47.183594 " fill-opacity="1" fill-rule="nonzero"/><path fill="#6fb5e7" d="M 81.234375 47.578125 L 79.960938 46.941406 L 83.355469 40.09375 L 84.628906 40.730469 Z M 123.140625 69.878906 L 121.867188 69.242188 L 118.472656 76.089844 L 119.746094 76.726562 Z M 55.996094 88.300781 L 54.722656 87.664062 L 51.328125 94.542969 L 52.601562 95.179688 Z M 75.082031 29.429688 L 75.355469 28.035156 L 67.871094 26.519531 L 67.597656 27.914062 Z M 75.082031 29.429688 " fill-opacity="1" fill-rule="nonzero"/><g clip-path="url(#cc440596d0)"><path fill="#3f2401" d="M 93.050781 33.277344 L 88.507812 26.851562 L 89.839844 25.914062 L 94.382812 32.335938 Z M 88.808594 26.914062 L 93.113281 32.972656 L 94.113281 32.277344 L 89.808594 26.214844 Z M 145.320312 66.457031 L 140.773438 60.03125 L 142.105469 59.09375 L 146.652344 65.515625 Z M 141.078125 60.09375 L 145.378906 66.152344 L 146.378906 65.457031 L 142.078125 59.394531 Z M 31.574219 98.847656 L 27.027344 92.421875 L 28.359375 91.484375 L 32.90625 97.90625 Z M 27.332031 92.484375 L 31.632812 98.542969 L 32.632812 97.847656 L 28.332031 91.785156 Z M 56.601562 75.089844 L 55.238281 74.183594 L 59.660156 67.667969 L 61.023438 68.574219 Z M 55.539062 74.121094 L 56.539062 74.789062 L 60.722656 68.636719 L 59.722656 67.96875 Z M 67.964844 119.207031 L 64.449219 112.179688 L 65.902344 111.449219 L 69.417969 118.480469 Z M 64.722656 112.269531 L 68.054688 118.90625 L 69.144531 118.359375 L 65.8125 111.722656 Z M 102.6875 56.820312 L 98.140625 50.394531 L 99.476562 49.457031 L 104.019531 55.878906 Z M 98.445312 50.457031 L 102.746094 56.515625 L 103.746094 55.820312 L 99.445312 49.761719 Z M 40.8125 78.667969 L 36.269531 72.242188 L 37.601562 71.304688 L 42.148438 77.726562 Z M 36.542969 72.332031 L 40.84375 78.394531 L 41.84375 77.695312 L 37.542969 71.636719 Z M 143.226562 83.363281 L 141.925781 82.363281 L 146.710938 76.121094 L 148.015625 77.121094 Z M 142.226562 82.332031 L 143.199219 83.058594 L 147.710938 77.152344 L 146.742188 76.425781 Z M 134.167969 102.359375 L 129.625 95.9375 L 130.957031 94.996094 L 135.5 101.421875 Z M 129.925781 95.996094 L 134.230469 102.058594 L 135.230469 101.359375 L 130.925781 95.300781 Z M 40.511719 54.335938 L 38.996094 53.667969 L 42.148438 46.457031 L 43.664062 47.125 Z M 39.300781 53.578125 L 40.421875 54.0625 L 43.390625 47.246094 L 42.269531 46.761719 Z M 81.265625 47.730469 L 79.78125 47.003906 L 83.265625 39.941406 L 84.75 40.667969 Z M 80.082031 46.910156 L 81.171875 47.457031 L 84.476562 40.792969 L 83.386719 40.246094 Z M 119.777344 76.878906 L 118.292969 76.152344 L 121.777344 69.089844 L 123.261719 69.820312 Z M 118.59375 76.03125 L 119.683594 76.574219 L 122.988281 69.910156 L 121.898438 69.363281 Z M 52.632812 95.300781 L 51.148438 94.574219 L 54.632812 87.511719 L 56.117188 88.242188 Z M 51.449219 94.484375 L 52.539062 95.027344 L 55.84375 88.363281 L 54.753906 87.816406 Z M 75.175781 29.550781 L 67.476562 27.972656 L 67.8125 26.367188 L 75.507812 27.945312 Z M 67.71875 27.824219 L 74.992188 29.308594 L 75.234375 28.125 L 67.964844 26.640625 Z M 165.074219 96.664062 C 165.105469 96.210938 165.136719 95.785156 165.164062 95.332031 C 165.164062 95.269531 165.164062 95.210938 165.164062 95.148438 C 165.195312 94.753906 165.195312 94.363281 165.195312 93.96875 C 165.195312 93.753906 165.226562 93.574219 165.226562 93.363281 C 165.257812 92.695312 165.257812 92.058594 165.257812 91.390625 C 165.257812 81.332031 163.316406 71.546875 159.46875 62.304688 L 159.378906 62.121094 L 159.164062 62.0625 C 155.621094 61.0625 152.773438 58.214844 151.742188 54.667969 L 151.652344 54.304688 L 151.289062 54.367188 C 150.589844 54.457031 149.894531 54.515625 149.199219 54.515625 C 148.984375 54.515625 148.773438 54.515625 148.5625 54.488281 C 148.46875 54.488281 148.410156 54.488281 148.320312 54.488281 C 148.199219 54.488281 148.046875 54.457031 147.925781 54.457031 C 147.832031 54.457031 147.742188 54.425781 147.621094 54.425781 C 147.53125 54.425781 147.410156 54.394531 147.320312 54.394531 C 147.199219 54.367188 147.105469 54.367188 146.984375 54.335938 C 146.894531 54.335938 146.832031 54.304688 146.742188 54.304688 C 146.257812 54.214844 145.773438 54.09375 145.289062 53.972656 C 145.289062 53.972656 145.289062 53.972656 145.257812 53.972656 C 145.105469 53.910156 144.925781 53.878906 144.773438 53.820312 C 144.742188 53.820312 144.710938 53.789062 144.683594 53.789062 C 144.53125 53.730469 144.378906 53.667969 144.226562 53.609375 C 144.199219 53.609375 144.199219 53.578125 144.167969 53.578125 C 143.53125 53.335938 142.925781 53.03125 142.320312 52.699219 C 142.289062 52.667969 142.226562 52.636719 142.199219 52.609375 C 142.078125 52.546875 141.984375 52.488281 141.894531 52.425781 C 141.835938 52.367188 141.742188 52.335938 141.683594 52.273438 C 141.59375 52.214844 141.5 52.152344 141.410156 52.09375 C 141.320312 52.03125 141.226562 51.972656 141.105469 51.878906 C 141.046875 51.851562 140.984375 51.789062 140.925781 51.757812 C 138.683594 50.0625 136.957031 47.667969 136.109375 44.910156 C 136.109375 44.882812 136.078125 44.820312 136.078125 44.789062 C 136.015625 44.640625 135.988281 44.488281 135.957031 44.335938 C 135.925781 44.214844 135.894531 44.09375 135.867188 43.941406 C 135.835938 43.851562 135.804688 43.730469 135.804688 43.640625 C 135.773438 43.519531 135.773438 43.398438 135.742188 43.304688 C 135.714844 43.183594 135.714844 43.0625 135.683594 42.941406 C 135.652344 42.820312 135.652344 42.699219 135.621094 42.609375 C 135.621094 42.488281 135.59375 42.367188 135.59375 42.246094 C 135.59375 42.09375 135.5625 41.941406 135.5625 41.820312 C 135.5625 41.730469 135.53125 41.640625 135.53125 41.546875 C 135.53125 41.304688 135.5 41.0625 135.5 40.820312 C 135.5 39.304688 135.742188 37.792969 136.230469 36.367188 L 136.5 35.609375 L 135.714844 35.820312 C 134.804688 36.0625 133.867188 36.183594 132.925781 36.183594 C 127.894531 36.183594 123.441406 32.609375 122.351562 27.703125 L 122.230469 27.09375 L 121.714844 27.429688 C 119.292969 28.945312 116.503906 29.730469 113.625 29.730469 C 105.988281 29.730469 99.445312 24.035156 98.476562 16.460938 L 98.445312 16.125 L 98.113281 16.097656 C 95.234375 15.824219 92.355469 15.671875 89.507812 15.671875 C 69.265625 15.671875 50.238281 23.550781 35.9375 37.851562 C 21.632812 52.152344 13.757812 71.183594 13.757812 91.421875 C 13.757812 92.121094 13.757812 92.816406 13.785156 93.511719 C 13.785156 93.726562 13.816406 93.9375 13.816406 94.148438 C 13.816406 94.484375 13.847656 94.847656 13.847656 95.179688 C 13.847656 95.332031 13.878906 95.511719 13.878906 95.664062 C 13.878906 95.875 13.90625 96.089844 13.90625 96.300781 C 13.9375 96.816406 13.96875 97.332031 14.027344 97.847656 C 14.058594 98.027344 14.058594 98.210938 14.089844 98.390625 C 14.148438 99.058594 14.210938 99.695312 14.300781 100.359375 C 14.300781 100.390625 14.300781 100.421875 14.300781 100.453125 C 14.394531 101.148438 14.484375 101.816406 14.574219 102.511719 C 14.605469 102.695312 14.636719 102.875 14.664062 103.085938 C 14.757812 103.574219 14.816406 104.085938 14.90625 104.574219 C 14.9375 104.816406 15 105.027344 15.027344 105.269531 C 15.121094 105.753906 15.210938 106.207031 15.300781 106.695312 C 15.332031 106.90625 15.390625 107.117188 15.421875 107.328125 C 15.574219 107.996094 15.726562 108.664062 15.878906 109.328125 L 15.90625 109.511719 C 19.847656 125.660156 29.210938 140.296875 42.300781 150.75 C 48.875 155.992188 56.175781 160.050781 64.054688 162.871094 C 72.234375 165.6875 80.78125 167.171875 89.507812 167.171875 C 108.261719 167.171875 126.261719 160.265625 140.199219 147.71875 C 154.015625 135.265625 162.742188 118.269531 164.800781 99.875 L 164.800781 99.785156 C 164.800781 99.722656 164.832031 99.632812 164.832031 99.574219 C 164.832031 99.574219 164.832031 99.574219 164.832031 99.542969 C 164.894531 98.847656 164.984375 98.179688 165.015625 97.480469 C 165.042969 97.210938 165.042969 96.9375 165.074219 96.664062 Z M 89.507812 16.550781 C 92.203125 16.550781 94.929688 16.703125 97.597656 16.976562 C 98.808594 24.792969 105.59375 30.671875 113.566406 30.671875 C 116.414062 30.671875 119.171875 29.945312 121.625 28.519531 C 123.019531 33.519531 127.652344 37.09375 132.894531 37.09375 C 133.652344 37.09375 134.410156 37.035156 135.167969 36.882812 C 134.804688 38.183594 134.621094 39.519531 134.621094 40.882812 C 134.621094 41.125 134.621094 41.398438 134.652344 41.640625 C 134.652344 41.730469 134.683594 41.820312 134.683594 41.941406 C 134.683594 42.09375 134.714844 42.246094 134.714844 42.398438 C 134.714844 42.519531 134.746094 42.640625 134.773438 42.761719 C 134.804688 42.882812 134.804688 43.003906 134.835938 43.125 C 134.867188 43.246094 134.867188 43.367188 134.894531 43.488281 C 134.925781 43.609375 134.925781 43.730469 134.957031 43.851562 C 134.957031 43.882812 134.957031 43.910156 134.957031 43.941406 C 134.988281 44.125 135.046875 44.304688 135.078125 44.488281 C 135.078125 44.488281 135.078125 44.519531 135.078125 44.519531 C 135.109375 44.578125 135.109375 44.640625 135.136719 44.699219 C 135.167969 44.820312 135.199219 44.941406 135.257812 45.09375 C 135.257812 45.125 135.289062 45.183594 135.289062 45.214844 C 136.230469 48.183594 138.046875 50.699219 140.441406 52.488281 C 140.5 52.515625 140.5625 52.578125 140.621094 52.609375 C 140.742188 52.699219 140.835938 52.757812 140.957031 52.851562 C 141.046875 52.910156 141.136719 52.972656 141.226562 53.03125 C 141.320312 53.09375 141.378906 53.125 141.472656 53.183594 C 141.59375 53.246094 141.683594 53.304688 141.804688 53.394531 C 141.863281 53.425781 141.894531 53.457031 141.957031 53.488281 C 142.59375 53.851562 143.226562 54.152344 143.894531 54.425781 C 143.925781 54.425781 143.957031 54.457031 143.957031 54.457031 C 144.105469 54.515625 144.289062 54.578125 144.441406 54.636719 C 144.46875 54.636719 144.5 54.667969 144.53125 54.667969 C 144.714844 54.730469 144.863281 54.789062 145.046875 54.820312 C 145.046875 54.820312 145.078125 54.820312 145.078125 54.820312 C 145.589844 54.972656 146.078125 55.09375 146.621094 55.183594 C 146.710938 55.183594 146.773438 55.214844 146.863281 55.214844 C 146.984375 55.246094 147.105469 55.246094 147.226562 55.273438 C 147.347656 55.304688 147.441406 55.304688 147.5625 55.304688 C 147.652344 55.304688 147.773438 55.335938 147.863281 55.335938 C 148.015625 55.335938 148.136719 55.367188 148.289062 55.367188 C 148.378906 55.367188 148.441406 55.367188 148.53125 55.394531 C 148.742188 55.394531 148.984375 55.425781 149.226562 55.425781 C 149.863281 55.425781 150.46875 55.394531 151.105469 55.304688 C 152.289062 58.910156 155.195312 61.757812 158.832031 62.878906 C 162.558594 71.9375 164.46875 81.542969 164.46875 91.421875 C 164.46875 92.058594 164.46875 92.664062 164.4375 93.300781 C 164.4375 93.484375 164.4375 93.695312 164.40625 93.875 C 164.40625 94.300781 164.378906 94.753906 164.347656 95.179688 C 164.316406 95.875 164.257812 96.542969 164.226562 97.210938 C 164.226562 97.390625 164.195312 97.605469 164.164062 97.785156 C 164.136719 98.210938 164.105469 98.601562 164.042969 99.027344 C 163.042969 98.96875 161.378906 99.390625 161.347656 99.390625 C 160.378906 99.753906 159.378906 100.480469 158.710938 101.300781 C 157.074219 103.269531 155.925781 105.574219 154.804688 107.816406 C 153.167969 111.117188 151.589844 114.207031 148.621094 116.359375 C 146.925781 117.570312 145.015625 118.175781 143.226562 118.027344 C 141.105469 117.84375 139.351562 116.632812 138.230469 115.664062 C 137.289062 114.84375 136.5 113.84375 135.714844 112.90625 C 134.746094 111.691406 133.714844 110.421875 132.378906 109.449219 C 128.503906 106.601562 122.59375 106.511719 118.292969 109.238281 C 113.503906 112.269531 112.777344 117.054688 112.050781 121.660156 C 111.65625 124.175781 111.230469 126.78125 110.203125 129.144531 C 109.050781 131.691406 106.960938 133.539062 104.566406 134.085938 C 102.414062 134.570312 100.234375 133.964844 98.382812 132.386719 C 96.839844 131.085938 96.050781 129.328125 95.234375 127.480469 C 94.6875 126.265625 94.140625 125.054688 93.355469 123.933594 C 91.234375 120.875 86.902344 119.238281 83.113281 120.027344 C 77.113281 121.296875 74.265625 127.628906 73.597656 133.144531 C 73.539062 133.601562 73.507812 134.054688 73.449219 134.539062 C 72.992188 138.933594 72.449219 143.902344 67.84375 145.445312 C 64.328125 146.628906 60.480469 144.082031 58.78125 140.902344 C 55.933594 135.570312 56.238281 129.359375 56.507812 123.390625 C 56.753906 118.417969 56.996094 113.269531 55.480469 108.542969 C 54.207031 104.601562 51.390625 101.574219 48.117188 100.695312 C 47.296875 100.480469 46.511719 100.359375 45.691406 100.359375 C 41.722656 100.359375 37.996094 102.816406 35.359375 104.816406 C 29.148438 109.480469 23.453125 113.027344 16.664062 108.90625 C 16.636719 108.785156 16.605469 108.664062 16.574219 108.542969 C 16.453125 108.027344 16.332031 107.511719 16.242188 106.996094 C 16.179688 106.785156 16.148438 106.542969 16.089844 106.328125 C 16 105.875 15.90625 105.421875 15.816406 104.996094 C 15.785156 104.753906 15.726562 104.542969 15.695312 104.300781 C 15.605469 103.785156 15.515625 103.300781 15.453125 102.785156 C 15.421875 102.632812 15.390625 102.453125 15.363281 102.300781 C 15.269531 101.632812 15.179688 100.9375 15.089844 100.269531 C 15.089844 100.179688 15.058594 100.089844 15.058594 99.996094 C 15 99.421875 14.9375 98.847656 14.878906 98.238281 C 14.847656 98.058594 14.847656 97.847656 14.816406 97.664062 C 14.785156 97.179688 14.726562 96.664062 14.695312 96.179688 C 14.695312 95.96875 14.664062 95.753906 14.664062 95.574219 C 14.636719 95.089844 14.605469 94.574219 14.605469 94.089844 C 14.605469 93.875 14.574219 93.664062 14.574219 93.484375 C 14.542969 92.785156 14.542969 92.121094 14.542969 91.421875 C 14.636719 50.125 48.207031 16.550781 89.507812 16.550781 Z M 163.953125 99.664062 L 163.953125 99.695312 C 163.953125 99.664062 163.953125 99.601562 163.953125 99.574219 L 163.984375 99.574219 C 163.953125 99.601562 163.953125 99.632812 163.953125 99.664062 Z M 89.507812 166.292969 C 55.144531 166.292969 25.453125 143.203125 16.96875 110.058594 C 20.058594 111.722656 23.210938 112.027344 26.542969 110.964844 C 29.84375 109.90625 32.964844 107.664062 35.875 105.453125 C 38.90625 103.148438 43.421875 100.238281 47.875 101.480469 C 50.875 102.300781 53.449219 105.085938 54.632812 108.753906 C 56.085938 113.328125 55.875 118.390625 55.632812 123.296875 C 55.359375 129.417969 55.054688 135.722656 57.996094 141.265625 C 59.507812 144.144531 62.722656 146.539062 65.992188 146.539062 C 66.691406 146.539062 67.386719 146.445312 68.054688 146.203125 C 73.175781 144.476562 73.75 138.992188 74.234375 134.570312 C 74.296875 134.085938 74.324219 133.628906 74.386719 133.175781 C 75.023438 127.964844 77.660156 121.964844 83.203125 120.8125 C 86.6875 120.085938 90.628906 121.570312 92.566406 124.359375 C 93.292969 125.417969 93.839844 126.632812 94.355469 127.78125 C 95.171875 129.628906 96.050781 131.539062 97.71875 132.992188 C 99.777344 134.75 102.230469 135.417969 104.65625 134.902344 C 107.292969 134.296875 109.625 132.296875 110.898438 129.480469 C 111.988281 127.023438 112.414062 124.359375 112.808594 121.78125 C 113.535156 117.148438 114.230469 112.785156 118.65625 109.9375 C 122.65625 107.390625 128.167969 107.449219 131.773438 110.117188 C 133.015625 111.027344 133.957031 112.179688 134.957031 113.421875 C 135.742188 114.390625 136.5625 115.421875 137.5625 116.296875 C 138.773438 117.359375 140.714844 118.660156 143.046875 118.875 C 145.015625 119.027344 147.136719 118.390625 149.015625 117.054688 C 152.167969 114.785156 153.832031 111.449219 155.46875 108.207031 C 156.558594 106.027344 157.710938 103.753906 159.289062 101.875 C 159.863281 101.179688 160.742188 100.542969 161.558594 100.238281 C 161.832031 100.148438 163.285156 99.90625 163.863281 99.90625 C 159.652344 137.78125 127.683594 166.292969 89.507812 166.292969 Z M 65.476562 95.148438 L 65.476562 95.210938 C 65.597656 95.96875 65.75 96.726562 65.933594 97.453125 C 65.933594 97.480469 65.964844 97.542969 65.964844 97.574219 C 66.054688 97.90625 66.144531 98.238281 66.234375 98.542969 C 66.265625 98.601562 66.296875 98.695312 66.296875 98.753906 C 66.386719 99.058594 66.476562 99.359375 66.597656 99.632812 C 66.628906 99.695312 66.660156 99.785156 66.691406 99.847656 C 66.8125 100.148438 66.902344 100.453125 67.054688 100.722656 C 67.085938 100.785156 67.113281 100.84375 67.113281 100.90625 C 67.234375 101.210938 67.386719 101.542969 67.539062 101.84375 C 67.539062 101.875 67.570312 101.90625 67.570312 101.9375 C 68.992188 104.90625 71.054688 107.601562 73.597656 109.785156 C 75.8125 111.691406 78.355469 113.179688 81.050781 114.175781 C 81.234375 114.238281 81.445312 114.300781 81.628906 114.390625 C 81.78125 114.449219 81.929688 114.511719 82.082031 114.542969 C 82.292969 114.601562 82.539062 114.664062 82.75 114.753906 C 82.902344 114.785156 83.023438 114.84375 83.171875 114.875 C 83.386719 114.933594 83.628906 114.996094 83.871094 115.054688 C 84.023438 115.085938 84.144531 115.117188 84.292969 115.148438 C 84.507812 115.207031 84.75 115.238281 84.960938 115.296875 C 85.113281 115.328125 85.265625 115.359375 85.414062 115.390625 C 85.628906 115.421875 85.839844 115.449219 86.050781 115.480469 C 86.234375 115.511719 86.414062 115.542969 86.597656 115.542969 C 86.777344 115.570312 86.992188 115.601562 87.171875 115.601562 C 87.386719 115.632812 87.628906 115.632812 87.839844 115.664062 C 87.992188 115.664062 88.144531 115.691406 88.292969 115.691406 C 88.6875 115.722656 89.082031 115.722656 89.476562 115.722656 C 89.871094 115.722656 90.265625 115.722656 90.65625 115.691406 C 90.808594 115.691406 90.960938 115.664062 91.113281 115.664062 C 91.324219 115.632812 91.566406 115.632812 91.777344 115.601562 C 91.960938 115.570312 92.171875 115.570312 92.355469 115.542969 C 92.535156 115.511719 92.71875 115.511719 92.898438 115.480469 C 93.113281 115.449219 93.324219 115.421875 93.535156 115.390625 C 93.6875 115.359375 93.839844 115.328125 93.992188 115.296875 C 94.203125 115.269531 94.445312 115.207031 94.65625 115.148438 C 94.808594 115.117188 94.929688 115.085938 95.082031 115.054688 C 95.324219 114.996094 95.535156 114.933594 95.777344 114.875 C 95.929688 114.84375 96.050781 114.785156 96.171875 114.753906 C 96.382812 114.691406 96.625 114.632812 96.839844 114.542969 C 96.992188 114.480469 97.140625 114.449219 97.292969 114.390625 C 97.476562 114.328125 97.6875 114.269531 97.867188 114.175781 C 100.566406 113.179688 103.109375 111.691406 105.324219 109.785156 C 107.867188 107.601562 109.898438 104.90625 111.351562 101.9375 C 111.382812 101.90625 111.382812 101.875 111.414062 101.84375 C 111.566406 101.542969 111.6875 101.238281 111.835938 100.90625 C 111.867188 100.84375 111.898438 100.785156 111.929688 100.722656 C 112.050781 100.421875 112.171875 100.148438 112.261719 99.847656 C 112.292969 99.753906 112.320312 99.695312 112.351562 99.601562 C 112.441406 99.300781 112.566406 99.027344 112.65625 98.726562 C 112.6875 98.664062 112.714844 98.574219 112.714844 98.511719 C 112.808594 98.210938 112.898438 97.875 112.988281 97.542969 C 112.988281 97.480469 113.019531 97.453125 113.019531 97.390625 C 113.199219 96.664062 113.351562 95.90625 113.472656 95.148438 L 113.472656 95.089844 C 113.65625 93.875 113.746094 92.632812 113.746094 91.363281 C 113.746094 77.9375 102.839844 67.03125 89.414062 67.03125 C 75.992188 67.03125 65.085938 77.9375 65.085938 91.363281 C 65.175781 92.695312 65.296875 93.9375 65.476562 95.148438 Z M 93.082031 114.601562 C 92.71875 114.664062 92.386719 114.691406 92.019531 114.722656 C 91.960938 114.722656 91.898438 114.722656 91.871094 114.753906 C 91.566406 114.785156 91.234375 114.8125 90.929688 114.8125 C 90.839844 114.8125 90.777344 114.8125 90.6875 114.84375 C 90.292969 114.875 89.929688 114.875 89.535156 114.875 C 89.144531 114.875 88.75 114.875 88.386719 114.84375 C 88.292969 114.84375 88.234375 114.84375 88.144531 114.8125 C 87.839844 114.785156 87.507812 114.785156 87.203125 114.753906 C 87.144531 114.753906 87.082031 114.753906 87.050781 114.722656 C 86.6875 114.691406 86.355469 114.632812 85.992188 114.601562 C 75.960938 113.054688 67.992188 105.148438 66.386719 95.148438 C 68.234375 83.726562 77.960938 75.453125 89.535156 75.453125 C 101.140625 75.453125 110.867188 83.726562 112.6875 95.148438 C 111.050781 105.148438 103.109375 113.054688 93.082031 114.601562 Z M 89.507812 67.96875 C 102.445312 67.96875 112.957031 78.484375 112.957031 91.421875 C 112.957031 91.753906 112.957031 92.058594 112.929688 92.363281 C 111.65625 87.757812 109.019531 83.605469 105.382812 80.453125 C 100.960938 76.636719 95.324219 74.546875 89.507812 74.546875 C 83.6875 74.546875 78.023438 76.636719 73.628906 80.453125 C 69.960938 83.605469 67.355469 87.757812 66.085938 92.363281 C 66.085938 92.058594 66.054688 91.726562 66.054688 91.421875 C 66.054688 78.484375 76.566406 67.96875 89.507812 67.96875 Z M 89.507812 67.96875 " fill-opacity="1" fill-rule="nonzero"/></g></svg>